<svg xmlns="http://www.w3.org/2000/svg" preserveAspectRatio="xMidYMid" width="19" height="18" viewBox="0 0 19 18"><defs><style>.cls-1 { fill: #fff; fill-rule: evenodd; }</style></defs><path d="M16.467 8.69v2.483H15.2V8.69h-2.533V7.448H15.2V4.965h1.267v2.483H19V8.69h-2.533zM8.703.852c.15.093.32.227.51.404.18.184.357.41.53.68.167.254.314.554.442.9.105.346.158.75.158 1.21-.014.846-.204 1.523-.57 2.03-.178.246-.367.473-.568.68-.22.208-.458.42-.708.635-.143.147-.275.312-.397.497-.143.192-.215.415-.215.67 0 .245.074.45.22.61.125.154.246.288.364.404l.814.658c.506.407.95.857 1.332 1.35.36.5.546 1.152.56 1.96 0 1.145-.513 2.16-1.54 3.044C8.57 17.497 7.032 17.97 5.023 18c-1.682-.016-2.938-.368-3.767-1.06C.418 16.297 0 15.526 0 14.63c0-.438.136-.925.408-1.462.264-.537.743-1.01 1.435-1.416.778-.438 1.595-.73 2.45-.875.85-.123 1.553-.192 2.114-.207-.174-.224-.328-.464-.463-.72-.16-.246-.237-.544-.237-.892 0-.21.03-.382.09-.522.053-.147.1-.282.147-.405-.273.03-.53.045-.772.045-1.278-.015-2.253-.41-2.923-1.188-.703-.722-1.053-1.564-1.053-2.525 0-1.16.497-2.213 1.49-3.16C3.37.75 4.08.39 4.818.22 5.543.072 6.226 0 6.863 0h4.803l-1.483.852h-1.48zM5.583 11.36c-.498.068-1.007.18-1.526.333-.123.047-.295.116-.517.208-.22.1-.447.243-.676.428-.222.192-.41.43-.562.715-.176.3-.264.66-.264 1.084 0 .83.382 1.515 1.147 2.053.726.538 1.72.815 2.982.83 1.132-.015 1.996-.26 2.592-.738.58-.47.87-1.072.87-1.81 0-.6-.198-1.123-.596-1.57-.42-.422-1.078-.94-1.972-1.556-.153-.015-.333-.023-.54-.023-.122-.016-.435 0-.94.046zM7.58 2.32c-.226-.455-.525-.824-.896-1.11C6.304.94 5.87.8 5.378.784c-.65.015-1.192.274-1.623.774-.364.524-.538 1.11-.522 1.756 0 .855.254 1.746.762 2.67.246.43.564.797.953 1.098.39.3.834.45 1.334.45.633-.02 1.16-.245 1.58-.67.204-.3.335-.607.393-.923.035-.316.052-.582.052-.798 0-.933-.242-1.873-.726-2.82z" class="cls-1"/></svg>