<svg xmlns="http://www.w3.org/2000/svg" viewBox="0 0 12 17.969"><path d="M11.863 7.5l.038.013-.3.946c-.626 1.95-1.823 4.03-2.865 5.665-1.043 1.63-1.935 2.796-1.946 2.81L6 17.968l-.79-1.03c-.01-.016-.902-1.183-1.946-2.814C2.22 12.485 1.024 10.405.4 8.453L.043 7.33l.06-.01C.038 6.963 0 6.596 0 6.22c0-1.707.668-3.264 1.75-4.387C2.83.708 4.34.005 6 .006c1.66 0 3.17.702 4.25 1.827C11.33 2.956 12 4.513 12 6.22c0 .438-.052.865-.137 1.28m-3.04-4.24C8.092 2.504 7.102 2.045 6 2.044c-1.102 0-2.092.46-2.822 1.216C2.45 4.017 2 5.058 2 6.22c0 .55.1 1.07.284 1.545l.45 1.167-.012.002c.537 1.26 1.302 2.624 2.03 3.78.457.728.894 1.372 1.247 1.877.306-.438.663-.958 1.06-1.577.815-1.27 1.7-2.834 2.282-4.255l-.005-.002.377-.983c.184-.48.286-1 .286-1.554 0-1.162-.45-2.203-1.178-2.96M6 8.3c-1.104 0-2-.913-2-2.038 0-1.125.896-2.038 2-2.038s2 .913 2 2.038C8 7.387 7.104 8.3 6 8.3" fill-rule="evenodd"/></svg>