<svg xmlns="http://www.w3.org/2000/svg" viewBox="0 0 20.97 21"><path d="M20.957 19.59L19.513 21l-6.644-6.496c-1.33.92-2.952 1.466-4.706 1.467-4.51 0-8.165-3.575-8.166-7.986 0-4.41 3.655-7.986 8.166-7.986 4.51 0 8.165 3.575 8.165 7.986 0 1.975-.737 3.78-1.95 5.173l6.577 6.432M12.494 3.75c-1.11-1.087-2.636-1.755-4.33-1.756-1.695 0-3.22.67-4.33 1.755-1.11 1.086-1.794 2.577-1.795 4.234 0 1.658.683 3.15 1.793 4.236 1.112 1.085 2.636 1.753 4.33 1.754 1.695 0 3.22-.67 4.33-1.754 1.11-1.087 1.795-2.578 1.795-4.236 0-1.657-.684-3.148-1.794-4.235" fill-rule="evenodd"/></svg>