<svg xmlns="http://www.w3.org/2000/svg" viewBox="0 0 200 163"><path d="M200 19.297c-7.358 3.273-15.267 5.484-23.566 6.48 8.47-5.094 14.977-13.157 18.04-22.766-7.93 4.716-16.71 8.14-26.06 9.986C160.93 5 150.264.002 138.464.002c-22.66 0-41.03 18.423-41.03 41.15 0 3.225.363 6.366 1.063 9.378-34.1-1.717-64.34-18.1-84.57-42.993-3.532 6.077-5.556 13.145-5.556 20.686 0 14.276 7.245 26.87 18.255 34.25-6.726-.214-13.05-2.065-18.585-5.147-.004.172-.004.344-.004.518 0 19.936 14.14 36.566 32.915 40.35-3.442.94-7.07 1.444-10.81 1.444-2.643 0-5.214-.26-7.72-.738 5.222 16.346 20.375 28.24 38.33 28.575-14.04 11.04-31.735 17.615-50.96 17.615-3.312 0-6.578-.195-9.788-.576 18.16 11.675 39.727 18.49 62.9 18.49 75.47 0 116.75-62.702 116.75-117.08 0-1.784-.04-3.56-.12-5.324 8.02-5.802 14.974-13.05 20.475-21.3" fill-rule="evenodd"/></svg>