<?xml version="1.0" encoding="utf-8"?>
<!-- Generator: Adobe Illustrator 23.1.1, SVG Export Plug-In . SVG Version: 6.00 Build 0)  -->
<svg version="1.1" id="Calque_1" xmlns="http://www.w3.org/2000/svg" xmlns:xlink="http://www.w3.org/1999/xlink" x="0px" y="0px"
	 viewBox="0 0 1295.2 391.8" style="enable-background:new 0 0 1295.2 391.8;" xml:space="preserve">
<style type="text/css">
	.st0{fill:#2096F3;}
	.st1{fill:#AAD6F9;}
	.st2{fill:#6BB7F5;}
</style>
<g>
	<g>
		<path class="st0" d="M108.1,265.8C97.8,276.5,81.7,281,64,281c-16.9,0-32.2-4-43.7-15.2c-8.3-8-13-19.5-13-30.9H30
			c0.3,9.3,4.5,16.4,11,21c6.2,4.5,15.7,6.2,24.2,6.2c9.3,0,17.9-1.7,24.9-7.5c3.7-3,6.7-8.5,6.7-14.7c0-10.2-7.2-17.4-21-19.2
			l-30.5-4c-20.2-3.2-33-15.7-33-36.2c0-10.3,5-20.2,11.2-26.4c8.8-9,22.9-15,39.7-15c17.9,0,33.9,5.7,42.9,17
			c5.8,7.2,9.7,15,9.7,25.9H92.9c-0.3-7-3.7-13.3-7.7-16.9c-5.7-5-13-7.2-22.2-7.2c-5.3,0-9.3,0-15.7,2.7
			c-8.5,3.5-13.7,10.7-13.7,18.2c0,11.2,7,16,18.2,17.5c7.5,1,18.2,2.2,32.5,4.5c19.2,3.2,34.4,17,34.4,37.4
			C118.8,250.1,114.6,259.1,108.1,265.8"/>
		<path class="st0" d="M308.5,277.5v-85.8c0-18.9-6.2-32-27.5-32c-8.5,0-15.2,3.5-20.5,9c-9,9.3-11.5,22.9-11.5,37v71.8h-22.7v-85.8
			c0-18.9-5.7-32-27.2-32c-9.7,0-17.4,4.8-22.9,12c-6.7,8.5-9,22.9-9,34.2v71.8h-22.7v-135h19.7l2.2,19.2
			c7.2-15.2,22.7-22.7,37.9-22.7c20,0,34.4,9,40.2,25.5c7.2-16.9,24.5-25.5,41.5-25.5c30.7,0,45.1,19.7,45.1,49.6v88.8L308.5,277.5"
			/>
		<path class="st0" d="M462.2,279.5c-12,0-19.5-9-19.5-20.5h-0.5c-7.7,13.7-24.5,22.2-43.6,22.2c-30.9,0-46.4-20.9-46.4-41.5
			c0-17.4,11.2-40,48.1-42.2l41-2.3v-10c0-6.7-0.8-15-7-20.5c-4.5-4.3-11.2-7-22.2-7c-12.3,0-20,3.5-24.5,8
			c-4.3,4.3-6.7,9.7-6.7,16.4h-22.2c0.3-12.3,4.8-21,11.7-28.2c9-9.7,25-14.4,41.5-14.4c26.2,0,41,11.2,47.6,25.9
			c2.7,6.2,4,13,4,20.9v65.4c0,7.2,3,9,7.5,9c2.3,0,5.8-0.8,5.8-0.8v16.9C472.3,278.6,467.8,279.5,462.2,279.5 M441.3,212.4
			l-36.2,2.2c-13.7,0.8-29.5,7.2-29.5,24.2c0,12,7.5,23.2,26.7,23.2c10.3,0,20.5-3.5,27.7-11c8-8.3,11.5-19.5,11.5-30.7v-7.8h-0.2
			V212.4z"/>
		<path class="st0" d="M704.8,279.1c-19.7,0-28.2-11.7-28.2-33V84.9h22.7v159.7c0,9,3,13.8,12.3,13.8c7.5,0,9.3-0.3,9.3-0.3v19.2
			C720.6,277.5,715.6,279.1,704.8,279.1"/>
		<path class="st0" d="M741.5,277.5V142.6h23.2v135h-23.2V277.5z"/>
		<path class="st0" d="M887.3,277.5v-85.6c0-20.2-8.3-32.2-29.5-32.2c-13,0-23.5,8.5-29.4,20.9c-4.5,9.8-4.8,24-4.8,34.4v62.7h-22.7
			v-135h19.7l1.8,20.2c7-15.5,25.5-23.7,40.9-23.7c30.7,0,46.7,18.4,46.7,49.6v88.8L887.3,277.5"/>
		<path class="st0" d="M1034.3,277.5l-42.2-65.1l-25.8,28.9v36.2h-22.7V84.9h22.7v125.6l61.1-68.1h27.5l-48.1,53.5l53.1,81.6H1034.3
			z"/>
		<path class="st0" d="M1179.3,101.6c-12,0-19.2,7.5-19.2,18.4v22.7h38.9v19.2h-38.9v115.8h-22.7V161.8h-24.5v-19.2h24.5v-24
			c0-20.2,15.7-36.2,39.2-36.2c9.3,0,17.5,1,25,2.3v18.9C1194.5,102.9,1188.9,101.6,1179.3,101.6"/>
		<path class="st0" d="M1274.8,163.7c-10.7,0-19.5,4.8-25.5,10.7c-11,10.3-12.3,29-12.3,43.2v60.1h-22.4v-135h20l1.8,23.7
			c7-16.5,23.2-24.5,40.2-24.5c3.5,0,7.2,0.3,10.7,0.8v22.2C1283.3,164,1278.8,163.7,1274.8,163.7"/>
		<path class="st0" d="M634.5,258.6c-12.5,0-18.2-5.3-18.2-18.4v-76.6h40v-1.7v-19.4v-0.8h-40v-38.8l-22.7,5.3v33.5h-30.2
			c-0.2,0-0.3,0-0.5,0c-17,0-33.4,8-40.2,24.5l-1.8-23.7h-20v135h22.4v-60.1c0-14.2,1.3-32.9,12.3-43.2c6.2-5.8,15-10.7,25.5-10.7
			h2.3h5.3h17.6h7.2H605l-11.5,10.4v68.9c0,18.2,8,36.5,37,36.5c12.5,0,20.9-2.2,26.9-3.7v-19.5
			C657.7,256.3,644.2,258.6,634.5,258.6"/>
		<path class="st0" d="M753.2,85.1c7.3,0,13.3,6,13.3,13.3s-6,13.3-13.3,13.3s-13.3-6-13.3-13.3C739.8,90.9,745.8,85.1,753.2,85.1"
			/>
		<path class="st0" d="M1092.1,250.9c7.3,0,13.3,6,13.3,13.3s-6,13.3-13.3,13.3s-13.3-6-13.3-13.3
			C1078.9,257,1084.7,250.9,1092.1,250.9"/>
	</g>
	<path class="st1" d="M711.6,43l-12.3-7.1c11.2-19.2,31.7-31,53.9-31c22,0,42.7,11.8,53.7,31l-12.3,7.2c-8.5-14.9-24.4-24-41.4-24
		C736.2,19,720.1,28.2,711.6,43"/>
	<path class="st2" d="M773.9,68.9c-4.3-7.3-12.2-12-20.9-12c-8.5,0-16.5,4.7-20.9,12l-12.3-7.2c6.8-11.8,19.5-19.2,33.2-19.2
		s26.4,7.3,33.2,19.2L773.9,68.9"/>
</g>
<g>
	<path d="M7.3,329.7h8v38.4h24v7.3H7.3V329.7z"/>
	<path d="M46.9,358.3v-0.1c0-9.9,7-18,16.9-18c11,0,16.5,8.6,16.5,18.6c0,0.7-0.1,1.4-0.1,2.2H54.8c0.8,5.6,4.8,8.8,9.9,8.8
		c3.9,0,6.6-1.4,9.3-4.1l4.6,4.1c-3.3,3.9-7.8,6.5-14.1,6.5C54.6,376.2,46.9,369,46.9,358.3z M72.5,355.8c-0.5-5.1-3.5-9.1-8.8-9.1
		c-4.8,0-8.2,3.7-9,9.1H72.5z"/>
	<path d="M113.1,340.9h7.9v5.2c2.2-3.1,5.2-5.9,10.5-5.9c5,0,8.4,2.4,10.3,6.1c2.8-3.7,6.5-6.1,11.7-6.1c7.5,0,12.1,4.8,12.1,13.2
		v22h-7.9v-19.6c0-5.5-2.5-8.4-7-8.4c-4.3,0-7.4,3-7.4,8.6v19.5h-7.9v-19.7c0-5.4-2.6-8.4-7-8.4c-4.4,0-7.4,3.3-7.4,8.6v19.4h-7.9
		V340.9z"/>
	<path d="M175.9,358.3v-0.1c0-9.9,7-18,16.9-18c11,0,16.5,8.6,16.5,18.6c0,0.7-0.1,1.4-0.1,2.2h-25.4c0.8,5.6,4.8,8.8,9.9,8.8
		c3.9,0,6.6-1.4,9.3-4.1l4.6,4.1c-3.3,3.9-7.8,6.5-14.1,6.5C183.6,376.2,175.9,369,175.9,358.3z M201.4,355.8
		c-0.5-5.1-3.5-9.1-8.8-9.1c-4.8,0-8.2,3.7-9,9.1H201.4z M196.3,325.8l7.2,3.2l-8,7.5h-5.9L196.3,325.8z"/>
	<path d="M218.1,358.2v-0.1c0-11.4,7.8-17.9,16-17.9c5.7,0,9.3,2.9,11.8,6.1v-18.6h7.9v47.7h-7.9v-5.8c-2.5,3.6-6.1,6.5-11.8,6.5
		C226,376.1,218.1,369.7,218.1,358.2z M246,358.2v-0.1c0-6.7-4.7-11-10-11c-5.4,0-9.9,4.2-9.9,11v0.1c0,6.7,4.6,11,9.9,11
		C241.3,369.3,246,364.8,246,358.2z"/>
	<path d="M266.4,328.1h8.5v7.5h-8.5V328.1z M266.7,340.9h7.9v34.5h-7.9V340.9z"/>
	<path d="M308.7,375.4v-4.2c-2.4,2.8-5.9,5-11.2,5c-6.5,0-12.3-3.7-12.3-10.7v-0.1c0-7.6,5.9-11.3,14-11.3c4.2,0,6.9,0.6,9.5,1.4
		v-0.7c0-4.8-3-7.4-8.5-7.4c-3.9,0-6.7,0.8-9.9,2.2l-2.2-6.3c3.8-1.7,7.5-2.9,13.1-2.9c10.2,0,15.2,5.4,15.2,14.6v20.5H308.7z
		 M308.9,361c-2-0.8-4.8-1.4-7.9-1.4c-5,0-7.9,2-7.9,5.4v0.1c0,3.3,2.9,5.1,6.7,5.1c5.2,0,9.1-2.9,9.1-7.3V361z"/>
	<path d="M349,358.2v-0.1c0-11.4,7.8-17.9,16-17.9c5.7,0,9.3,2.9,11.8,6.1v-18.6h7.9v47.7h-7.9v-5.8c-2.5,3.6-6.1,6.5-11.8,6.5
		C356.9,376.1,349,369.7,349,358.2z M376.9,358.2v-0.1c0-6.7-4.7-11-10-11c-5.4,0-9.9,4.2-9.9,11v0.1c0,6.7,4.6,11,9.9,11
		C372.2,369.3,376.9,364.8,376.9,358.2z"/>
	<path d="M395.2,358.3v-0.1c0-9.9,7-18,16.9-18c11,0,16.5,8.6,16.5,18.6c0,0.7-0.1,1.4-0.1,2.2h-25.4c0.8,5.6,4.8,8.8,9.9,8.8
		c3.9,0,6.6-1.4,9.3-4.1l4.6,4.1c-3.3,3.9-7.8,6.5-14.1,6.5C402.9,376.2,395.2,369,395.2,358.3z M420.8,355.8
		c-0.5-5.1-3.5-9.1-8.8-9.1c-4.8,0-8.2,3.7-9,9.1H420.8z"/>
	<path d="M461.9,327.7h7.9v47.7h-7.9V327.7z"/>
	<path d="M503.8,375.4v-4.2c-2.4,2.8-5.9,5-11.2,5c-6.5,0-12.3-3.7-12.3-10.7v-0.1c0-7.6,5.9-11.3,14-11.3c4.2,0,6.9,0.6,9.5,1.4
		v-0.7c0-4.8-3-7.4-8.5-7.4c-3.9,0-6.7,0.8-9.9,2.2l-2.2-6.3c3.8-1.7,7.5-2.9,13.1-2.9c10.2,0,15.2,5.4,15.2,14.6v20.5H503.8z
		 M504,361c-2-0.8-4.8-1.4-7.9-1.4c-5,0-7.9,2-7.9,5.4v0.1c0,3.3,2.9,5.1,6.7,5.1c5.2,0,9.1-2.9,9.1-7.3V361z"/>
	<path d="M547.5,365.9v-18.2h-4.4v-6.8h4.4v-9.5h7.9v9.5h9.3v6.8h-9.3v16.9c0,3.1,1.6,4.3,4.2,4.3c1.8,0,3.3-0.4,4.9-1.2v6.5
		c-2,1.1-4.2,1.8-7.1,1.8C551.7,376,547.5,373.5,547.5,365.9z"/>
	<path d="M575.3,340.9h7.9v7.8c2.2-5.2,6.1-8.7,12.2-8.4v8.4H595c-6.9,0-11.8,4.5-11.8,13.7v13.1h-7.9V340.9z"/>
	<path d="M624.4,375.4v-4.2c-2.4,2.8-5.9,5-11.2,5c-6.5,0-12.3-3.7-12.3-10.7v-0.1c0-7.6,5.9-11.3,14-11.3c4.2,0,6.9,0.6,9.5,1.4
		v-0.7c0-4.8-3-7.4-8.5-7.4c-3.9,0-6.7,0.8-9.9,2.2l-2.2-6.3c3.8-1.7,7.5-2.9,13.1-2.9c10.2,0,15.2,5.4,15.2,14.6v20.5H624.4z
		 M624.6,361c-2-0.8-4.8-1.4-7.9-1.4c-5,0-7.9,2-7.9,5.4v0.1c0,3.3,2.9,5.1,6.7,5.1c5.2,0,9.1-2.9,9.1-7.3V361z"/>
	<path d="M644.2,340.9h7.9v5.4c2.2-3.3,5.4-6.1,10.8-6.1c7.8,0,12.3,5.2,12.3,13.3v22h-7.9v-19.6c0-5.4-2.7-8.4-7.4-8.4
		c-4.6,0-7.8,3.2-7.8,8.6v19.5h-7.9V340.9z"/>
	<path d="M684.6,370.9l3.5-5.4c3.7,2.8,7.8,4.2,11.3,4.2c3.4,0,5.4-1.4,5.4-3.7v-0.1c0-2.7-3.7-3.6-7.7-4.8
		c-5.1-1.4-10.8-3.5-10.8-10.1v-0.1c0-6.5,5.4-10.5,12.3-10.5c4.3,0,9,1.5,12.7,3.9l-3.1,5.6c-3.3-2-6.9-3.3-9.7-3.3
		c-3.1,0-4.8,1.4-4.8,3.5v0.1c0,2.5,3.7,3.5,7.8,4.8c5,1.6,10.7,3.9,10.7,10.1v0.1c0,7.3-5.6,10.8-12.8,10.8
		C694.3,376.1,688.9,374.3,684.6,370.9z"/>
	<path d="M722.8,328.1h8.5v7.5h-8.5V328.1z M723.1,340.9h7.9v34.5h-7.9V340.9z"/>
	<path d="M745.6,365.9v-18.2h-4.4v-6.8h4.4v-9.5h7.9v9.5h9.3v6.8h-9.3v16.9c0,3.1,1.6,4.3,4.2,4.3c1.8,0,3.3-0.4,4.9-1.2v6.5
		c-2,1.1-4.2,1.8-7.1,1.8C749.7,376,745.6,373.5,745.6,365.9z"/>
	<path d="M773.5,328.1h8.5v7.5h-8.5V328.1z M773.8,340.9h7.9v34.5h-7.9V340.9z"/>
	<path d="M792.8,358.4v-0.1c0-9.9,7.8-18,18.4-18c10.6,0,18.4,8,18.4,17.9v0.1c0,9.8-7.8,18-18.5,18
		C800.5,376.2,792.8,368.2,792.8,358.4z M821.7,358.4v-0.1c0-6.1-4.4-11.1-10.6-11.1c-6.3,0-10.4,5-10.4,11v0.1
		c0,6,4.4,11.1,10.5,11.1C817.6,369.3,821.7,364.3,821.7,358.4z"/>
	<path d="M840.2,340.9h7.9v5.4c2.2-3.3,5.4-6.1,10.8-6.1c7.8,0,12.3,5.2,12.3,13.3v22h-7.9v-19.6c0-5.4-2.7-8.4-7.4-8.4
		c-4.6,0-7.8,3.2-7.8,8.6v19.5h-7.9V340.9z"/>
	<path d="M903.7,358.3v-0.1c0-9.9,7-18,16.9-18c11,0,16.5,8.6,16.5,18.6c0,0.7-0.1,1.4-0.1,2.2h-25.4c0.8,5.6,4.8,8.8,9.9,8.8
		c3.9,0,6.6-1.4,9.3-4.1l4.6,4.1c-3.3,3.9-7.8,6.5-14.1,6.5C911.4,376.2,903.7,369,903.7,358.3z M929.2,355.8
		c-0.5-5.1-3.5-9.1-8.8-9.1c-4.8,0-8.2,3.7-9,9.1H929.2z M924,325.8l7.2,3.2l-8,7.5h-5.9L924,325.8z"/>
	<path d="M945.7,358.4v-0.1c0-9.8,7.6-18,17.9-18c6.5,0,10.6,2.4,13.8,5.9l-4.9,5.3c-2.4-2.5-5-4.3-9-4.3c-5.8,0-9.9,5-9.9,11v0.1
		c0,6.1,4.2,11.1,10.3,11.1c3.7,0,6.5-1.8,9-4.3l4.8,4.7c-3.4,3.8-7.4,6.5-14.1,6.5C953.3,376.2,945.7,368.2,945.7,358.4z"/>
	<path d="M984.7,358.4v-0.1c0-9.9,7.8-18,18.4-18c10.6,0,18.4,8,18.4,17.9v0.1c0,9.8-7.8,18-18.5,18
		C992.4,376.2,984.7,368.2,984.7,358.4z M1013.6,358.4v-0.1c0-6.1-4.4-11.1-10.6-11.1c-6.3,0-10.4,5-10.4,11v0.1
		c0,6,4.4,11.1,10.5,11.1C1009.5,369.3,1013.6,364.3,1013.6,358.4z"/>
	<path d="M1032.6,327.7h7.9v47.7h-7.9V327.7z"/>
	<path d="M1051.5,358.4v-0.1c0-9.9,7.8-18,18.4-18c10.6,0,18.4,8,18.4,17.9v0.1c0,9.8-7.8,18-18.5,18
		C1059.3,376.2,1051.5,368.2,1051.5,358.4z M1080.4,358.4v-0.1c0-6.1-4.4-11.1-10.6-11.1c-6.3,0-10.4,5-10.4,11v0.1
		c0,6,4.4,11.1,10.5,11.1C1076.3,369.3,1080.4,364.3,1080.4,358.4z"/>
	<path d="M1098.9,381.9l2.9-5.9c3.7,2.3,7.6,3.7,12.3,3.7c7.1,0,10.9-3.7,10.9-10.6v-2.7c-2.9,3.7-6.5,6.3-12.2,6.3
		c-8.1,0-15.7-6-15.7-16.1v-0.1c0-10.2,7.6-16.2,15.7-16.2c5.8,0,9.4,2.7,12.1,5.9v-5.2h7.9v27.4c0,5.8-1.5,10.1-4.4,13
		c-3.1,3.1-8,4.6-14.2,4.6C1108.6,386,1103.3,384.6,1098.9,381.9z M1125.1,356.5v-0.1c0-5.7-4.6-9.5-10.1-9.5
		c-5.5,0-9.8,3.8-9.8,9.5v0.1c0,5.7,4.4,9.5,9.8,9.5C1120.5,366,1125.1,362.1,1125.1,356.5z"/>
	<path d="M1145.5,328.1h8.5v7.5h-8.5V328.1z M1145.8,340.9h7.9v34.5h-7.9V340.9z"/>
	<path d="M1192.7,369.7c-2.5,3.6-6.1,6.5-11.8,6.5c-8.1,0-16-6.5-16-17.9v-0.1c0-11.4,7.8-17.9,16-17.9c5.7,0,9.3,2.9,11.8,6.1v-5.4
		h7.9v45h-7.9V369.7z M1192.8,358.2v-0.1c0-6.7-4.7-11-10-11c-5.4,0-9.9,4.2-9.9,11v0.1c0,6.7,4.6,11,9.9,11
		C1188.1,369.3,1192.8,364.8,1192.8,358.2z"/>
	<path d="M1212.6,362.9v-22h7.9v19.6c0,5.4,2.7,8.4,7.4,8.4c4.6,0,7.8-3.2,7.8-8.6v-19.5h7.9v34.5h-7.9v-5.4
		c-2.2,3.3-5.4,6.1-10.8,6.1C1217.2,376.1,1212.6,370.9,1212.6,362.9z"/>
	<path d="M1254.3,358.3v-0.1c0-9.9,7-18,16.9-18c11,0,16.5,8.6,16.5,18.6c0,0.7-0.1,1.4-0.1,2.2h-25.4c0.8,5.6,4.8,8.8,9.9,8.8
		c3.9,0,6.6-1.4,9.3-4.1l4.6,4.1c-3.3,3.9-7.8,6.5-14.1,6.5C1262,376.2,1254.3,369,1254.3,358.3z M1279.8,355.8
		c-0.5-5.1-3.5-9.1-8.8-9.1c-4.8,0-8.2,3.7-9,9.1H1279.8z"/>
</g>
</svg>
