<svg xmlns="http://www.w3.org/2000/svg" viewBox="0 0 767.1 165.5" enable-background="new 0 0 767.1 165.5"><g fill="#2096f3"><path d="m60.4 156.4c-6.2 6.4-15.8 9.1-26.4 9.1-10.1 0-19.3-2.4-26.2-9.1-5-4.8-7.8-11.7-7.8-18.5h13.6c.2 5.6 2.7 9.8 6.6 12.6 3.7 2.7 9.4 3.7 14.5 3.7 5.6 0 10.7-1 14.9-4.5 2.2-1.8 4-5.1 4-8.8 0-6.1-4.3-10.4-12.6-11.5l-18.3-2.4c-12.1-1.9-19.8-9.4-19.8-21.7 0-6.2 3-12.1 6.7-15.8 5.3-5.4 13.7-9 23.8-9 10.7 0 20.3 3.4 25.7 10.2 3.5 4.3 5.8 9 5.8 15.5h-13.6c-.2-4.2-2.2-8-4.6-10.1-3.4-3-7.8-4.3-13.3-4.3-3.2 0-5.6 0-9.4 1.6-5.1 2.1-8.2 6.4-8.2 10.9 0 6.7 4.2 9.6 10.9 10.5 4.5.6 10.9 1.3 19.5 2.7 11.5 1.9 20.6 10.2 20.6 22.4 0 7.1-2.5 12.5-6.4 16.5"/><path d="m180.5 163.4v-51.4c0-11.3-3.7-19.2-16.5-19.2-5.1 0-9.1 2.1-12.3 5.4-5.4 5.6-6.9 13.7-6.9 22.2v43h-13.6v-51.4c0-11.3-3.4-19.2-16.3-19.2-5.8 0-10.4 2.9-13.7 7.2-4 5.1-5.4 13.7-5.4 20.5v43h-13.6v-80.9h11.8l1.3 11.5c4.3-9.1 13.6-13.6 22.7-13.6 12 0 20.6 5.4 24.1 15.3 4.3-10.1 14.7-15.3 24.9-15.3 18.4 0 27 11.8 27 29.7v53.2h-13.5"/><path d="m272.6 164.6c-7.2 0-11.7-5.4-11.7-12.3h-.3c-4.6 8.2-14.7 13.3-26.1 13.3-18.5 0-27.8-12.5-27.8-24.9 0-10.4 6.7-24 28.8-25.3l24.6-1.4v-6c0-4-.5-9-4.2-12.3-2.7-2.6-6.7-4.2-13.3-4.2-7.4 0-12 2.1-14.7 4.8-2.6 2.6-4 5.8-4 9.8h-13.3c.2-7.4 2.9-12.6 7-16.9 5.4-5.8 15-8.6 24.9-8.6 15.7 0 24.6 6.7 28.5 15.5 1.6 3.7 2.4 7.8 2.4 12.5v39.2c0 4.3 1.8 5.4 4.5 5.4 1.4 0 3.5-.5 3.5-.5v10.1c-2.7 1.3-5.4 1.8-8.8 1.8m-12.5-40.2l-21.7 1.3c-8.2.5-17.7 4.3-17.7 14.5 0 7.2 4.5 13.9 16 13.9 6.2 0 12.3-2.1 16.6-6.6 4.8-5 6.9-11.7 6.9-18.4v-4.7z"/><path d="m418 164.4c-11.8 0-16.9-7-16.9-19.8v-96.6h13.6v95.7c0 5.4 1.8 8.3 7.4 8.3 4.5 0 5.6-.2 5.6-.2v11.5c-.2.1-3.2 1.1-9.7 1.1"/><path d="M440,163.4V82.6h13.9v80.9H440z"/><path d="m527.4 163.4v-51.3c0-12.1-5-19.3-17.7-19.3-7.8 0-14.1 5.1-17.6 12.5-2.7 5.9-2.9 14.4-2.9 20.6v37.6h-13.6v-80.9h11.8l1.1 12.1c4.2-9.3 15.3-14.2 24.5-14.2 18.4 0 28 11 28 29.7v53.2h-13.6"/><path d="M615.5,163.4l-25.3-39l-15.5,17.3v21.7h-13.6V48h13.6v75.3l36.6-40.8h16.5l-28.8,32l31.8,48.9H615.5z"/><path d="m702.4 58c-7.2 0-11.5 4.5-11.5 11v13.6h23.3v11.5h-23.3v69.4h-13.6v-69.4h-14.7v-11.5h14.7v-14.4c0-12.1 9.4-21.7 23.5-21.7 5.6 0 10.5.6 15 1.4v11.3c-4.3-.4-7.7-1.2-13.4-1.2"/><path d="m759.6 95.2c-6.4 0-11.7 2.9-15.3 6.4-6.6 6.2-7.4 17.4-7.4 25.9v36h-13.4v-80.9h12l1.1 14.2c4.2-9.9 13.9-14.7 24.1-14.7 2.1 0 4.3.2 6.4.5v13.3c-2.4-.5-5.1-.7-7.5-.7"/><path d="m375.9 152.1c-7.5 0-10.9-3.2-10.9-11v-45.9h24v-1-11.6-.5h-24v-23.3l-13.6 3.2v20.1h-18.1c-.1 0-.2 0-.3 0-10.2 0-20 4.8-24.1 14.7l-1.1-14.2h-12v80.9h13.4v-36c0-8.5.8-19.7 7.4-25.9 3.7-3.5 9-6.4 15.3-6.4h1.4 3.2 10.5 4.3 6.9l-6.9 6.1v41.3c0 10.9 4.8 21.9 22.2 21.9 7.5 0 12.5-1.3 16.1-2.2v-11.7c.2.1-7.9 1.5-13.7 1.5"/><path d="m447 48.1c4.4 0 8 3.6 8 8 0 4.4-3.6 8-8 8-4.4 0-8-3.6-8-8 0-4.5 3.6-8 8-8"/><path d="m650.1 147.5c4.4 0 8 3.6 8 8 0 4.4-3.6 8-8 8-4.4 0-8-3.6-8-8 .1-4.4 3.6-8 8-8"/></g><path fill="#aad6f9" d="m422.1 22.9l-7.4-4.3c6.7-11.5 19-18.6 32.3-18.6 13.2 0 25.6 7.1 32.2 18.6l-7.4 4.3c-5.1-8.9-14.6-14.4-24.8-14.4-10.2 0-19.8 5.5-24.9 14.4"/><path fill="#6bb7f5" d="m459.4 38.4c-2.6-4.4-7.3-7.2-12.5-7.2-5.1 0-9.9 2.8-12.5 7.2l-7.4-4.3c4.1-7.1 11.7-11.5 19.9-11.5 8.2 0 15.8 4.4 19.9 11.5l-7.4 4.3"/></svg>