<svg xmlns="http://www.w3.org/2000/svg" viewBox="0 0 16 16"><path d="M8 16c-4.418-.001-7.999-3.582-8-8 .001-4.419 3.582-7.999 8-8 4.418.001 7.999 3.581 8 8-.001 4.418-3.582 7.999-8 8m4.242-12.243c-1.089-1.087-2.582-1.757-4.242-1.757-1.66 0-3.153.67-4.242 1.757-1.088 1.089-1.757 2.583-1.758 4.243 0 1.66.67 3.153 1.758 4.242 1.089 1.088 2.583 1.758 4.242 1.758 1.659 0 3.153-.67 4.242-1.758 1.088-1.089 1.758-2.582 1.758-4.242 0-1.66-.67-3.154-1.758-4.243m-7.095 5.176l2.194-1.188v-3.974h2v5.166l-3.242 1.755-.952-1.759" fill-rule="evenodd"/></svg>