<svg xmlns="http://www.w3.org/2000/svg" xmlns:xlink="http://www.w3.org/1999/xlink" preserveAspectRatio="xMidYMid" width="19" height="18" viewBox="0 0 19 18">
  <defs>
    <style>
      .cls-1 {
        fill: #fff;
        fill-rule: evenodd;
      }
    </style>
  </defs>
  <path d="M16.467,8.690 L16.467,11.173 L15.200,11.173 L15.200,8.690 L12.667,8.690 L12.667,7.448 L15.200,7.448 L15.200,4.965 L16.467,4.965 L16.467,7.448 L19.000,7.448 L19.000,8.690 L16.467,8.690 ZM8.703,0.852 C8.854,0.945 9.024,1.079 9.212,1.256 C9.393,1.440 9.570,1.667 9.744,1.936 C9.910,2.190 10.057,2.490 10.185,2.836 C10.290,3.182 10.343,3.585 10.343,4.046 C10.329,4.892 10.139,5.569 9.774,6.076 C9.595,6.322 9.406,6.549 9.205,6.757 C8.984,6.964 8.747,7.175 8.497,7.391 C8.354,7.537 8.222,7.702 8.100,7.887 C7.957,8.079 7.885,8.302 7.885,8.556 C7.885,8.802 7.959,9.006 8.106,9.167 C8.230,9.321 8.351,9.455 8.469,9.571 L9.284,10.228 C9.790,10.635 10.234,11.085 10.616,11.577 C10.975,12.077 11.162,12.730 11.177,13.538 C11.177,14.683 10.663,15.698 9.636,16.582 C8.570,17.497 7.032,17.969 5.023,18.000 C3.341,17.984 2.085,17.632 1.256,16.941 C0.418,16.296 -0.000,15.525 -0.000,14.628 C-0.000,14.190 0.136,13.703 0.408,13.166 C0.672,12.629 1.151,12.157 1.843,11.750 C2.621,11.312 3.438,11.021 4.294,10.875 C5.142,10.752 5.846,10.683 6.407,10.668 C6.233,10.444 6.079,10.204 5.944,9.949 C5.785,9.702 5.707,9.404 5.707,9.056 C5.707,8.847 5.737,8.674 5.797,8.534 C5.850,8.387 5.898,8.252 5.944,8.129 C5.671,8.160 5.414,8.175 5.172,8.175 C3.894,8.160 2.919,7.764 2.249,6.987 C1.547,6.265 1.197,5.423 1.197,4.462 C1.197,3.301 1.694,2.249 2.688,1.303 C3.370,0.749 4.080,0.388 4.816,0.219 C5.544,0.073 6.227,-0.000 6.864,-0.000 L11.667,-0.000 L10.184,0.852 L8.703,0.852 ZM5.582,11.359 C5.085,11.428 4.576,11.540 4.057,11.693 C3.934,11.740 3.762,11.809 3.540,11.901 C3.319,12.001 3.093,12.143 2.864,12.328 C2.642,12.520 2.455,12.758 2.302,13.043 C2.126,13.343 2.038,13.704 2.038,14.127 C2.038,14.958 2.420,15.642 3.185,16.180 C3.911,16.718 4.905,16.995 6.167,17.011 C7.299,16.995 8.163,16.749 8.759,16.272 C9.340,15.803 9.631,15.200 9.631,14.461 C9.631,13.862 9.432,13.339 9.034,12.893 C8.614,12.470 7.956,11.951 7.062,11.336 C6.909,11.321 6.729,11.313 6.523,11.313 C6.400,11.297 6.087,11.313 5.582,11.359 ZM7.581,2.320 C7.354,1.865 7.055,1.496 6.684,1.211 C6.305,0.941 5.870,0.798 5.378,0.783 C4.727,0.798 4.186,1.057 3.755,1.557 C3.391,2.081 3.217,2.667 3.233,3.313 C3.233,4.168 3.487,5.059 3.995,5.983 C4.241,6.414 4.559,6.780 4.948,7.081 C5.337,7.381 5.782,7.531 6.282,7.531 C6.915,7.509 7.441,7.285 7.863,6.861 C8.066,6.560 8.197,6.253 8.255,5.937 C8.290,5.621 8.307,5.355 8.307,5.139 C8.307,4.207 8.065,3.267 7.581,2.320 Z" class="cls-1"/>
</svg>
