<svg xmlns="http://www.w3.org/2000/svg" viewBox="0 0 12 17.969"><path d="M11.863 7.5l.038.013-.302.946c-.625 1.952-1.822 4.03-2.864 5.666-1.043 1.631-1.935 2.796-1.946 2.811l-.789 1.031-.789-1.031c-.011-.015-.903-1.182-1.947-2.813-1.043-1.638-2.24-3.718-2.864-5.671l-.357-1.121.059-.01c-.063-.359-.102-.726-.102-1.102 0-1.706.668-3.263 1.751-4.386 1.08-1.125 2.59-1.828 4.249-1.827 1.659-.001 3.169.702 4.249 1.827 1.083 1.123 1.751 2.68 1.751 4.386 0 .439-.052.866-.137 1.281m-3.041-4.24c-.73-.756-1.72-1.215-2.822-1.216-1.102.001-2.092.46-2.822 1.216-.727.757-1.177 1.798-1.178 2.959 0 .55.101 1.071.284 1.546l.45 1.167-.012.002c.537 1.261 1.302 2.624 2.03 3.779.457.729.894 1.373 1.247 1.878.307-.439.664-.959 1.06-1.578.816-1.271 1.7-2.834 2.283-4.255l-.005-.002.377-.983c.184-.48.286-1 .286-1.554-.001-1.161-.451-2.202-1.178-2.959m-2.822 5.04c-1.104 0-2-.913-2-2.038 0-1.125.896-2.038 2-2.038s2 .913 2 2.038c0 1.125-.896 2.038-2 2.038" fill-rule="evenodd"/></svg>