<svg xmlns="http://www.w3.org/2000/svg" viewBox="0 0 20.97 21"><path d="M20.957 19.589l-1.444 1.412-6.644-6.497c-1.33.92-2.951 1.466-4.705 1.467-4.511-.001-8.165-3.576-8.166-7.987.001-4.411 3.655-7.986 8.166-7.986 4.51 0 8.165 3.575 8.165 7.986 0 1.975-.736 3.779-1.95 5.173l6.578 6.432m-8.463-15.84c-1.111-1.086-2.636-1.754-4.33-1.755-1.695.001-3.219.669-4.331 1.755-1.11 1.087-1.793 2.578-1.794 4.235.001 1.658.684 3.149 1.794 4.236 1.112 1.085 2.636 1.753 4.331 1.754 1.694-.001 3.219-.669 4.33-1.754 1.11-1.087 1.794-2.578 1.794-4.236 0-1.657-.684-3.148-1.794-4.235" fill-rule="evenodd"/></svg>